<svg xmlns="http://www.w3.org/2000/svg" xmlns:xlink="http://www.w3.org/1999/xlink" width="3000" zoomAndPan="magnify" viewBox="0 0 2250 2250.000011" height="3000" preserveAspectRatio="xMidYMid meet" version="1.0"><defs><clipPath id="899ba58f8c"><path d="M 80.121094 25 L 2170 25 L 2170 2212 L 80.121094 2212 Z M 80.121094 25 " clip-rule="nonzero"/></clipPath></defs><g clip-path="url(#899ba58f8c)"><path fill="#66785f" d="M 1860.640625 1016.125 L 1860.640625 1656.691406 C 1860.640625 1761.765625 1807.660156 1851.945312 1715.859375 1903.027344 C 1469.808594 2040.035156 780.066406 2040.035156 534.015625 1903.027344 C 519.441406 1894.929688 505.882812 1885.824219 493.335938 1875.867188 L 390.246094 2054.402344 C 404.328125 2064.238281 419.023438 2073.46875 434.324219 2082.007812 C 743.515625 2254.191406 1506.277344 2254.191406 1815.472656 2082.007812 C 1972.191406 1994.742188 2065.449219 1836.078125 2065.449219 1656.691406 L 2065.449219 1476.695312 L 2088.277344 1561.855469 C 2134.742188 1551.375 2169.671875 1509.683594 2169.671875 1460.183594 L 2169.671875 1350.816406 C 2169.671875 1293.503906 2126.445312 1234.367188 2069.089844 1234.367188 L 2062.089844 950.835938 C 2057.597656 767.96875 1815.269531 718.832031 1655.996094 684.710938 C 1376.714844 624.886719 1138.757812 732.875 1236.507812 489.660156 C 1556.992188 613.917969 1619.367188 268.742188 1829.070312 119.308594 C 1706.46875 22.488281 1541.207031 -0.988281 1396.425781 57.824219 C 1251.605469 116.636719 1149.527344 248.667969 1129.085938 403.605469 C 1241.363281 273.601562 1396.425781 187.992188 1566.34375 162.292969 C 1350.246094 225.960938 1254.601562 339.371094 1144.265625 523.253906 C 845.191406 1154.308594 1765.808594 662.730469 1860.640625 1016.125 M 998.429688 1296.132812 C 979.003906 1330.132812 942.414062 1353.042969 900.4375 1353.042969 C 838.148438 1353.042969 787.675781 1302.570312 787.675781 1240.277344 C 787.675781 1208.949219 800.464844 1180.617188 821.066406 1160.175781 C 811.472656 1158.921875 801.679688 1158.273438 791.722656 1158.273438 C 668.109375 1158.273438 567.890625 1258.492188 567.890625 1382.105469 C 567.890625 1505.71875 668.109375 1605.933594 791.722656 1605.933594 C 915.335938 1605.933594 1015.550781 1505.71875 1015.550781 1382.105469 C 1015.550781 1351.667969 1009.480469 1322.605469 998.429688 1296.132812 Z M 1458.070312 1158.273438 C 1334.457031 1158.273438 1234.242188 1258.492188 1234.242188 1382.105469 C 1234.242188 1505.71875 1334.460938 1605.933594 1458.070312 1605.933594 C 1581.683594 1605.933594 1681.902344 1505.71875 1681.902344 1382.105469 C 1681.902344 1361.21875 1679.027344 1341.023438 1673.683594 1321.875 C 1653.445312 1341.183594 1626.046875 1353.042969 1595.851562 1353.042969 C 1533.558594 1353.042969 1483.085938 1302.570312 1483.085938 1240.277344 C 1483.085938 1211.257812 1494.054688 1184.828125 1512.027344 1164.832031 C 1494.78125 1160.582031 1476.691406 1158.273438 1458.070312 1158.273438 Z M 983.089844 1756.261719 C 1072.582031 1799.976562 1177.210938 1799.976562 1266.703125 1756.261719 C 1231.328125 1797.871094 1179.476562 1821.832031 1124.875 1821.832031 C 1070.316406 1821.832031 1018.464844 1797.871094 983.089844 1756.261719 Z M 1028.910156 637.675781 C 883.519531 641.523438 733.152344 654.839844 593.796875 684.667969 C 434.484375 718.789062 238.746094 786.34375 191.347656 963.019531 L 184.34375 1246.550781 L 184.34375 1334.222656 L 161.515625 1249.0625 C 115.089844 1259.625 80.121094 1301.316406 80.121094 1350.816406 L 80.121094 1460.183594 C 80.121094 1517.496094 127.03125 1564.40625 184.34375 1564.40625 L 184.34375 1656.730469 C 184.34375 1818.148438 259.871094 1962.765625 389.191406 2053.714844 L 389.191406 1016.125 C 415.257812 919.023438 664.101562 862.359375 950.101562 846.167969 C 997.09375 904.210938 1066.550781 941.082031 1142.644531 946.386719 C 1031.214844 887.855469 982.078125 754.53125 1028.910156 637.675781 Z M 1028.910156 637.675781 " fill-opacity="1" fill-rule="evenodd"/></g></svg>