<svg xmlns="http://www.w3.org/2000/svg" xmlns:xlink="http://www.w3.org/1999/xlink" width="3000" zoomAndPan="magnify" viewBox="0 0 2250 2250.000011" height="3000" preserveAspectRatio="xMidYMid meet" version="1.0"><defs><g/><clipPath id="0b84637e5a"><path d="M 695.335938 527 L 1546.210938 527 L 1546.210938 1418 L 695.335938 1418 Z M 695.335938 527 " clip-rule="nonzero"/></clipPath><clipPath id="4ab26e7336"><rect x="0" width="927" y="0" height="656"/></clipPath><clipPath id="506ffcf7d0"><rect x="0" width="891" y="0" height="485"/></clipPath></defs><g clip-path="url(#0b84637e5a)"><path fill="#66785f" d="M 1420.261719 931.160156 L 1420.261719 1191.960938 C 1420.261719 1234.742188 1398.691406 1271.457031 1361.316406 1292.253906 C 1261.136719 1348.039062 980.3125 1348.039062 880.136719 1292.253906 C 874.203125 1288.960938 868.683594 1285.25 863.574219 1281.199219 L 821.601562 1353.886719 C 827.335938 1357.890625 833.320312 1361.648438 839.546875 1365.125 C 965.433594 1435.230469 1275.984375 1435.230469 1401.871094 1365.125 C 1465.679688 1329.597656 1503.644531 1265 1503.644531 1191.960938 L 1503.644531 1118.679688 L 1512.941406 1153.351562 C 1531.859375 1149.082031 1546.082031 1132.109375 1546.082031 1111.957031 L 1546.082031 1067.429688 C 1546.082031 1044.09375 1528.480469 1020.019531 1505.128906 1020.019531 L 1502.277344 904.582031 C 1500.449219 830.128906 1401.789062 810.121094 1336.941406 796.230469 C 1223.234375 771.871094 1126.351562 815.839844 1166.152344 716.816406 C 1296.632812 767.40625 1322.027344 626.871094 1407.40625 566.03125 C 1357.492188 526.613281 1290.207031 517.054688 1231.261719 541 C 1172.296875 564.941406 1130.738281 618.699219 1122.414062 681.78125 C 1168.128906 628.847656 1231.261719 593.996094 1300.441406 583.53125 C 1212.457031 609.453125 1173.515625 655.628906 1128.59375 730.492188 C 1006.828125 987.421875 1381.648438 787.28125 1420.261719 931.160156 M 1069.21875 1045.164062 C 1061.308594 1059.007812 1046.414062 1068.335938 1029.324219 1068.335938 C 1003.960938 1068.335938 983.410156 1047.785156 983.410156 1022.421875 C 983.410156 1009.667969 988.621094 998.132812 997.007812 989.8125 C 993.101562 989.300781 989.113281 989.035156 985.058594 989.035156 C 934.730469 989.035156 893.929688 1029.839844 893.929688 1080.167969 C 893.929688 1130.496094 934.730469 1171.296875 985.058594 1171.296875 C 1035.386719 1171.296875 1076.191406 1130.496094 1076.191406 1080.167969 C 1076.191406 1067.773438 1073.71875 1055.941406 1069.21875 1045.164062 Z M 1256.359375 989.035156 C 1206.03125 989.035156 1165.226562 1029.839844 1165.226562 1080.167969 C 1165.226562 1130.496094 1206.03125 1171.296875 1256.359375 1171.296875 C 1306.6875 1171.296875 1347.488281 1130.496094 1347.488281 1080.167969 C 1347.488281 1071.664062 1346.320312 1063.441406 1344.144531 1055.644531 C 1335.902344 1063.507812 1324.746094 1068.335938 1312.453125 1068.335938 C 1287.09375 1068.335938 1266.542969 1047.785156 1266.542969 1022.421875 C 1266.542969 1010.609375 1271.007812 999.847656 1278.324219 991.707031 C 1271.304688 989.976562 1263.9375 989.035156 1256.359375 989.035156 Z M 1062.972656 1232.5 C 1099.410156 1250.300781 1142.007812 1250.300781 1178.445312 1232.5 C 1164.042969 1249.441406 1142.929688 1259.199219 1120.699219 1259.199219 C 1098.488281 1259.199219 1077.375 1249.441406 1062.972656 1232.5 Z M 1081.628906 777.082031 C 1022.433594 778.644531 961.214844 784.066406 904.476562 796.210938 C 839.613281 810.105469 759.921875 837.609375 740.621094 909.539062 L 737.773438 1024.976562 L 737.773438 1060.671875 L 728.476562 1026 C 709.574219 1030.300781 695.335938 1047.273438 695.335938 1067.429688 L 695.335938 1111.957031 C 695.335938 1135.289062 714.4375 1154.390625 737.773438 1154.390625 L 737.773438 1191.980469 C 737.773438 1257.699219 768.523438 1316.578125 821.171875 1353.609375 L 821.171875 931.160156 C 831.785156 891.628906 933.101562 868.558594 1049.542969 861.964844 C 1068.675781 885.597656 1096.953125 900.609375 1127.933594 902.769531 C 1082.566406 878.9375 1062.5625 824.65625 1081.628906 777.082031 Z M 1081.628906 777.082031 " fill-opacity="1" fill-rule="evenodd"/></g><g transform="matrix(1, 0, 0, 1, 251, 1369)"><g clip-path="url(#4ab26e7336)"><g fill="#66785f" fill-opacity="1"><g transform="translate(1.628284, 545.260876)"><g><path d="M 0 0 L 117.828125 -402.0625 L 283.671875 -402.0625 L 401.515625 0 L 293.5 0 L 273.3125 -80.1875 L 128.203125 -80.1875 L 108.015625 0 Z M 148.390625 -158.75 L 253.125 -158.75 L 210.578125 -325.140625 L 190.9375 -325.140625 Z M 148.390625 -158.75 "/></g></g></g><g fill="#66785f" fill-opacity="1"><g transform="translate(440.777769, 545.260876)"><g><path d="M 87.828125 0 L 27.28125 -60.546875 L 27.28125 -341.5 L 87.828125 -402.0625 L 312.59375 -402.0625 L 373.140625 -341.5 L 373.140625 -267.3125 L 273.859375 -267.859375 L 273.859375 -305.5 L 254.21875 -324.59375 L 148.9375 -324.59375 L 129.296875 -305.5 L 129.296875 -97.109375 L 148.9375 -77.46875 L 234.578125 -77.46875 L 286.953125 -123.828125 L 286.953125 -138.015625 L 213.296875 -138.015625 L 213.296875 -216.03125 L 379.140625 -216.03125 L 379.140625 0 L 292.953125 0 L 292.953125 -36 L 252.578125 0 Z M 87.828125 0 "/></g></g></g></g></g><g transform="matrix(1, 0, 0, 1, 1120, 1452)"><g clip-path="url(#506ffcf7d0)"><g fill="#66785f" fill-opacity="1"><g transform="translate(0.754379, 220.848261)"><g><path d="M 16.0625 0 L 16.0625 -169.046875 L 131.203125 -169.046875 L 156.890625 -143.59375 L 156.890625 -83.03125 L 137.625 -63.765625 L 163.3125 0 L 120.1875 0 L 97.9375 -57.578125 L 58.953125 -57.578125 L 58.953125 0 Z M 58.953125 -90.140625 L 107.125 -90.140625 L 115.140625 -98.171875 L 115.140625 -128.453125 L 107.125 -136.484375 L 58.953125 -136.484375 Z M 58.953125 -90.140625 "/></g></g></g><g fill="#66785f" fill-opacity="1"><g transform="translate(220.277054, 220.848261)"><g><path d="M 9.171875 0 L 9.171875 -32.34375 L 27.984375 -32.34375 L 27.53125 -136.703125 L 9.171875 -136.703125 L 9.171875 -169.046875 L 87.15625 -169.046875 L 87.15625 -136.703125 L 68.578125 -136.703125 L 68.125 -32.34375 L 87.15625 -32.34375 L 87.15625 0 Z M 9.171875 0 "/></g></g></g><g fill="#66785f" fill-opacity="1"><g transform="translate(0.754379, 434.422072)"><g><path d="M 39.90625 0 L 14.90625 -25.453125 L 14.90625 -169.046875 L 57.796875 -169.046875 L 57.796875 -40.59375 L 65.828125 -32.578125 L 112.390625 -32.578125 L 120.421875 -40.59375 L 120.421875 -169.046875 L 163.3125 -169.046875 L 163.3125 -25.453125 L 137.859375 0 Z M 39.90625 0 "/></g></g></g><g fill="#66785f" fill-opacity="1"><g transform="translate(228.304973, 434.422072)"><g><path d="M 0 0 L 49.546875 -169.046875 L 119.28125 -169.046875 L 168.8125 0 L 123.40625 0 L 114.921875 -33.71875 L 53.90625 -33.71875 L 45.421875 0 Z M 62.390625 -66.75 L 106.4375 -66.75 L 88.53125 -136.703125 L 80.28125 -136.703125 Z M 62.390625 -66.75 "/></g></g></g><g fill="#66785f" fill-opacity="1"><g transform="translate(446.451535, 434.422072)"><g><path d="M 16.0625 0 L 16.0625 -169.046875 L 131.203125 -169.046875 L 156.890625 -143.59375 L 156.890625 -83.03125 L 137.625 -63.765625 L 163.3125 0 L 120.1875 0 L 97.9375 -57.578125 L 58.953125 -57.578125 L 58.953125 0 Z M 58.953125 -90.140625 L 107.125 -90.140625 L 115.140625 -98.171875 L 115.140625 -128.453125 L 107.125 -136.484375 L 58.953125 -136.484375 Z M 58.953125 -90.140625 "/></g></g></g><g fill="#66785f" fill-opacity="1"><g transform="translate(665.97421, 434.422072)"><g><path d="M 16.0625 0 L 16.0625 -169.046875 L 126.390625 -169.046875 L 161.484375 -133.953125 L 161.484375 -35.09375 L 126.390625 0 Z M 58.953125 -32.578125 L 107.8125 -32.578125 L 119.96875 -44.734375 L 119.96875 -124.328125 L 107.8125 -136.484375 L 58.953125 -136.484375 Z M 58.953125 -32.578125 "/></g></g></g></g></g></svg>