<svg width="112" height="98" viewBox="0 0 112 98" fill="none" xmlns="http://www.w3.org/2000/svg">
<path d="M56.8296 12.6162C57.0659 13.1967 56.99 13.6334 56.8863 14.2321C56.7675 15.074 56.7486 15.9231 56.7138 16.7704C56.705 16.9784 56.6962 17.1865 56.6872 17.4008C56.5942 19.8182 56.5994 22.2347 56.6092 24.6531C56.6103 25.1086 56.6112 25.564 56.6121 26.0195C56.6143 27.1154 56.6178 28.2114 56.6222 29.3074C56.7503 29.2064 56.8784 29.1055 57.0104 29.0014C57.2626 28.8029 57.2626 28.8029 57.5198 28.6004C57.6864 28.4692 57.853 28.3379 58.0247 28.2027C58.9164 27.506 59.844 26.8494 60.7703 26.1893C60.8897 26.1041 61.0091 26.0189 61.1321 25.9311C62.0453 25.2798 62.9619 24.6325 63.8815 23.9882C63.9965 23.9075 64.1115 23.8269 64.2299 23.7437C66.0611 22.4638 67.9577 21.2845 69.8963 20.1364C70.0757 20.0293 70.0757 20.0293 70.2588 19.9199C70.5774 19.7305 70.8979 19.5436 71.2185 19.3569C71.3955 19.2538 71.5725 19.1507 71.7548 19.0445C71.8944 18.9811 72.034 18.9178 72.1778 18.8525C72.3146 18.913 72.4515 18.9735 72.5926 19.0359C70.201 20.9852 70.201 20.9852 69.1833 21.7643C68.7515 22.0953 68.3436 22.4266 67.9389 22.7845C67.4738 23.1958 66.9966 23.5732 66.5 23.9538C65.7556 24.5339 65.1044 25.1412 64.4648 25.8102C64.0475 26.231 63.6064 26.622 63.1555 27.0147C62.3159 27.7497 61.5366 28.5127 60.7703 29.3074C60.5731 29.5091 60.3756 29.7106 60.1781 29.9121C59.9607 30.1347 59.7433 30.3573 59.5259 30.5799C59.3746 30.7342 59.3746 30.7342 59.2202 30.8917C59.0146 31.1032 58.8115 31.3167 58.6108 31.5319C58.3786 31.774 58.135 32.0078 57.8841 32.2348C56.6455 33.4382 56.6457 34.4806 56.7259 36.0595C56.7307 36.2786 56.7355 36.4977 56.7405 36.7234C56.7728 37.9148 56.8667 39.096 56.9871 40.2826C57.0864 41.4371 57.1151 42.5946 57.1537 43.7517C57.1627 44.0068 57.1717 44.2618 57.1808 44.5169C57.2026 45.1331 57.2238 45.7492 57.2444 46.3654C57.3813 46.3654 57.5182 46.3654 57.6592 46.3654C57.7146 46.2574 57.7699 46.1493 57.8269 46.038C60.2668 42.0273 66.8239 38.9491 71.5795 37.6601C72.3948 37.454 73.2075 37.3119 74.0444 37.1944C74.0444 37.376 74.0444 37.5576 74.0444 37.7447C73.9212 37.7939 73.7979 37.8431 73.6709 37.8937C72.4371 38.4096 71.3701 39.0184 70.2811 39.7437C69.6787 40.1358 69.0606 40.4938 68.4315 40.8514C67.4241 41.4391 66.5337 42.0828 65.6541 42.8124C65.2245 43.1661 64.7884 43.5066 64.3441 43.8456C63.433 44.5481 62.5709 45.2885 61.7166 46.0444C61.563 46.1799 61.4094 46.3154 61.2511 46.4549C60.224 47.3707 59.2816 48.3072 58.3989 49.3353C58.2381 49.4995 58.2381 49.4995 58.0741 49.667C57.9372 49.667 57.8003 49.667 57.6592 49.667C57.6592 49.788 57.6592 49.9091 57.6592 50.0338C57.8894 50.0329 58.1195 50.0319 58.3566 50.0309C63.324 50.0123 68.2901 50.0315 73.2569 50.1023C73.8048 50.1101 74.3528 50.1177 74.9007 50.125C75.6769 50.1355 76.4531 50.1472 77.2293 50.1592C77.4577 50.1623 77.6862 50.1653 77.9215 50.1685C82.1075 50.2388 82.1075 50.2388 83.5592 50.6987C83.7341 50.7503 83.9089 50.8018 84.0891 50.8549C85.3552 51.5186 86.0852 52.6728 86.787 53.7825C87.6373 55.092 88.5236 56.3783 89.4315 57.6572C89.5635 57.8434 89.6955 58.0295 89.8316 58.2213C90.238 58.7939 90.6449 59.3662 91.0518 59.9385C92.71 62.274 94.3567 64.6146 95.9733 66.9729C97.1048 68.6209 98.2608 70.255 99.4186 71.8887C100.467 73.3685 101.505 74.8541 102.543 76.3397C102.879 76.8203 103.216 77.3004 103.554 77.7803C104.972 79.7985 106.367 81.8276 107.744 83.868C108.074 84.3553 108.406 84.8413 108.739 85.3271C108.907 85.5726 108.907 85.5726 109.078 85.8232C109.29 86.1341 109.503 86.4447 109.717 86.7551C111.126 88.82 112.021 90.4359 111.419 92.8996C110.862 94.6804 109.935 96.1144 108.122 97.1146C106.839 97.6992 105.794 97.9334 104.353 97.931C104.184 97.9314 104.015 97.9318 103.841 97.9323C103.271 97.9335 102.7 97.9334 102.129 97.9333C101.718 97.934 101.306 97.9346 100.895 97.9354C99.7604 97.9372 98.626 97.9379 97.4915 97.9384C96.2695 97.9391 95.0475 97.9409 93.8255 97.9425C91.012 97.9459 88.1984 97.9478 85.3849 97.9493C83.9946 97.9501 82.6044 97.9511 81.2141 97.952C76.4554 97.9553 71.6967 97.9581 66.938 97.9594C66.6392 97.9595 66.3403 97.9596 66.0415 97.9597C65.8934 97.9597 65.7452 97.9598 65.5925 97.9598C64.8417 97.96 64.091 97.9603 63.3402 97.9605C63.1167 97.9606 63.1167 97.9606 62.8887 97.9606C58.0586 97.9621 53.2285 97.9664 48.3984 97.9723C43.2923 97.9786 38.1861 97.9822 33.08 97.9828C32.5193 97.9829 31.9587 97.983 31.3981 97.9831C31.26 97.9831 31.122 97.9831 30.9798 97.9832C28.8962 97.9836 26.8127 97.986 24.7292 97.9895C22.3587 97.9935 19.9882 97.995 17.6177 97.9932C16.4081 97.9924 15.1985 97.9927 13.9889 97.9963C12.8813 97.9995 11.7738 97.9993 10.6662 97.9965C10.2657 97.996 9.86527 97.9968 9.46482 97.999C6.71144 98.013 4.59494 97.8893 2.4986 96.1374C0.897415 94.5079 0.452196 92.7925 0.510408 90.6914C0.675359 88.7298 2.17788 87.0378 3.34043 85.432C3.96134 84.5653 4.56044 83.687 5.16027 82.8087C5.543 82.2485 5.92674 81.6888 6.31052 81.1292C6.38891 81.0149 6.46729 80.9006 6.54805 80.7828C7.3766 79.5754 8.21138 78.3714 9.04814 77.1685C9.18047 76.978 9.31279 76.7875 9.44913 76.5913C10.2967 75.3741 11.1585 74.1654 12.0296 72.9613C14.1896 69.9693 16.3258 66.9647 18.4476 63.9514C18.8488 63.3817 19.2502 62.8121 19.6518 62.2427C19.7818 62.0584 19.9118 61.874 20.0458 61.6841C20.7971 60.6213 21.5596 59.566 22.3352 58.517C23.1652 57.3939 23.956 56.2529 24.7333 55.1008C24.8388 54.9449 24.9442 54.789 25.0528 54.6284C25.6047 53.8127 25.6047 53.8127 26.1529 52.995C27.8281 50.489 27.8281 50.489 29.5434 50.0236C30.6188 49.7947 31.6705 49.8018 32.7716 49.8088C32.9943 49.8087 33.2171 49.8087 33.4466 49.8086C34.1783 49.8088 34.91 49.8117 35.6416 49.8146C36.1508 49.8153 36.6599 49.8158 37.1691 49.8162C38.5057 49.8175 39.8423 49.8211 41.1789 49.8252C42.5442 49.829 43.9095 49.8306 45.2747 49.8325C47.9511 49.8364 50.6274 49.8426 53.3037 49.8504C53.2378 48.6986 53.2378 48.6986 52.566 47.7654C52.4551 47.6668 52.3442 47.5683 52.2299 47.4667C52.1092 47.366 51.9884 47.2652 51.864 47.1614C51.677 46.9981 51.677 46.9981 51.4862 46.8315C51.0885 46.4858 50.6861 46.1448 50.2833 45.8037C50.0182 45.5741 49.7534 45.3443 49.4889 45.1141C48.2358 44.0283 46.9633 42.9717 45.6296 41.9634C45.3006 41.6965 44.9721 41.4291 44.6444 41.1609C43.5107 40.2535 42.3026 39.4562 41.0666 38.6618C41.4815 38.4784 41.4815 38.4784 41.8647 38.5679C42.0163 38.6178 42.1679 38.6677 42.3241 38.7191C42.9692 38.9229 43.5811 39.0745 44.2555 39.1777C46.5247 39.6151 48.1879 40.9606 49.8809 42.2757C50.4588 42.7168 51.0651 43.1245 51.6712 43.5346C52.0078 43.7627 52.3387 43.9974 52.6685 44.2332C53.0758 44.5376 53.0758 44.5376 53.5111 44.7147C53.5498 43.1089 53.5791 41.5033 53.5971 39.8973C53.6057 39.1513 53.6173 38.4055 53.6363 37.6596C53.6545 36.9377 53.6643 36.216 53.6685 35.4939C53.6715 35.2206 53.6775 34.9473 53.6865 34.674C53.771 32.0189 52.7276 30.3995 50.8148 28.3903C50.5496 27.9662 50.5496 27.9662 50.3433 27.5549C49.6875 26.3458 48.8376 25.2556 47.9889 24.1487C47.8214 23.9287 47.654 23.7087 47.4868 23.4886C47.0077 22.8593 46.5263 22.2314 46.0444 21.6038C45.8582 21.3608 45.8582 21.3608 45.6683 21.1129C44.6511 19.7871 43.625 18.4711 42.5185 17.2017C42.5869 17.0806 42.6554 16.9596 42.7259 16.8349C42.8564 16.9391 42.9868 17.0434 43.1213 17.1508C45.0725 18.7202 45.0725 18.7202 47.0944 20.2167C47.7126 20.6935 48.2284 21.1942 48.7585 21.7456C49.1864 22.1858 49.6305 22.6104 50.0759 23.0367C51.1561 24.0949 52.182 25.2213 52.9747 26.4665C53.3603 27.0016 53.821 27.4052 54.3407 27.84C54.3311 27.6131 54.3215 27.3861 54.3116 27.1522C54.2421 24.715 54.5623 22.4421 55.0738 20.0505C55.189 19.4964 55.2791 18.9407 55.3648 18.3825C55.5595 17.2336 55.8392 16.1013 56.1166 14.9663C56.1627 14.7773 56.2089 14.5884 56.2564 14.3938C56.5956 13.03 56.5956 13.03 56.8296 12.6162Z" fill="#624335"/>
<path d="M32.9105 49.8083C33.265 49.8083 33.265 49.8083 33.6265 49.8083C34.3998 49.809 35.173 49.8125 35.9463 49.8162C36.4819 49.8174 37.0176 49.8186 37.5532 49.8197C42.7353 49.8352 47.9158 49.9222 53.0963 50.034C53.0963 50.3971 53.0963 50.7603 53.0963 51.1345C52.111 51.1481 51.1258 51.1581 50.1404 51.1647C49.8054 51.1675 49.4705 51.1712 49.1355 51.176C48.6531 51.1827 48.1708 51.1858 47.6883 51.1882C47.465 51.1925 47.465 51.1925 47.2371 51.1968C46.2923 51.1971 45.7894 51.0307 45.0074 50.5842C44.4595 50.4932 44.4595 50.4932 43.8796 50.4904C43.553 50.4806 43.553 50.4806 43.2198 50.4706C42.9884 50.4665 42.757 50.4624 42.5185 50.4581C42.2793 50.4521 42.0401 50.4461 41.7937 50.44C41.0674 50.4232 40.3412 50.411 39.6148 50.4008C39.4042 50.3978 39.1936 50.3947 38.9766 50.3916C35.4104 50.1497 35.4104 50.1497 32.1481 50.9511C31.4514 51.006 30.7595 51.0205 30.0603 51.0356C29.4342 51.0727 29.4342 51.0727 29.1788 51.4748C29.132 51.6046 29.0852 51.7344 29.037 51.8682C28.7421 52.4255 28.4724 52.9076 28.0259 53.3814C27.3973 54.1009 26.987 54.9008 26.5481 55.72C26.4113 55.72 26.2744 55.72 26.1333 55.72C26.0455 55.9214 26.0455 55.9214 25.9559 56.1269C25.2501 57.6437 24.2229 59.0225 23.2426 60.4086C22.039 62.1105 20.8964 63.8395 19.7678 65.5809C19.0273 66.7233 18.2785 67.8596 17.5068 68.9857C16.7992 70.021 16.1131 71.0671 15.4259 72.1131C14.4162 73.6495 13.3916 75.177 12.3537 76.6986C11.2557 78.31 10.1763 79.9298 9.11297 81.5592C8.98706 81.752 8.86115 81.9448 8.73142 82.1434C8.49252 82.5108 8.25503 82.8789 8.01911 83.2478C7.78466 83.6116 7.54497 83.9728 7.30068 84.3315C7.18462 84.5066 7.06855 84.6818 6.94896 84.8622C6.84404 85.0166 6.73912 85.1711 6.63101 85.3302C6.37358 85.9318 6.44522 86.287 6.63704 86.9013C7.91797 88.3431 9.86631 88.77 11.8222 89.1024C12.7607 89.1863 13.6948 89.2084 14.6376 89.2227C14.9068 89.2287 15.176 89.2347 15.4534 89.2408C16.1724 89.2564 16.8914 89.2685 17.6105 89.2793C18.0356 89.2856 18.4607 89.2925 18.8858 89.2996C20.8426 89.3313 22.7994 89.3531 24.7563 89.3724C25.2794 89.3776 25.8024 89.3831 26.3255 89.3886C41.8986 89.5516 57.4724 89.6535 73.0462 89.7465C74.071 89.7526 75.0958 89.7588 76.1206 89.7651C76.9456 89.7701 77.7706 89.7752 78.5956 89.7802C78.7568 89.7811 78.9179 89.7821 79.0839 89.7831C80.8206 89.7936 82.5574 89.8033 84.2942 89.811C84.4455 89.8116 84.5968 89.8123 84.7526 89.813C85.3542 89.8157 85.9557 89.8183 86.5572 89.8208C88.4063 89.8286 90.2551 89.8411 92.1041 89.8593C93.1387 89.8689 94.1734 89.8756 95.2081 89.8816C95.6797 89.8851 96.1512 89.8898 96.6228 89.896C101.501 90.0124 101.501 90.0124 105.778 88.1853C106.232 87.7759 106.232 87.7759 106.4 87.2682C106.322 86.3504 106.097 85.7244 105.556 84.9432C105.423 84.7485 105.29 84.5538 105.153 84.3532C105.081 84.2511 105.01 84.1491 104.937 84.0439C104.632 83.6069 104.332 83.1671 104.032 82.7274C103.876 82.4993 103.72 82.2713 103.564 82.0435C102.795 80.9219 102.055 79.7859 101.318 78.6474C100.262 77.0194 99.189 75.4002 98.1037 73.7868C96.9977 72.1424 95.9037 70.4925 94.8241 68.8345C94.6941 68.6349 94.5641 68.4353 94.4302 68.2297C93.8709 67.37 93.3126 66.5099 92.7557 65.649C91.4769 63.6778 90.1496 61.734 88.8125 59.7934C87.7573 58.2615 86.718 56.7221 85.6968 55.1722C85.4223 54.7584 85.1444 54.3464 84.8661 53.9345C84.7205 53.7182 84.7205 53.7182 84.5719 53.4976C84.3851 53.2202 84.1976 52.9432 84.0094 52.6666C83.3778 51.726 83.3778 51.726 83.3778 51.3179C83.1343 51.2846 83.1343 51.2846 82.886 51.2506C82.5712 51.2045 82.5712 51.2045 82.25 51.1574C81.936 51.1127 81.936 51.1127 81.6156 51.0671C81.3585 51.0097 81.3585 51.0097 81.0963 50.9511C81.0278 50.83 80.9594 50.709 80.8889 50.5842C82.1945 50.5292 83.4705 50.5248 84.6222 51.1345C85.5246 51.918 86.1736 52.8126 86.787 53.7826C87.6373 55.0921 88.5236 56.3784 89.4315 57.6574C89.5635 57.8435 89.6955 58.0297 89.8316 58.2215C90.2381 58.794 90.6449 59.3663 91.0518 59.9386C92.71 62.2741 94.3567 64.6148 95.9733 66.973C97.1048 68.621 98.2609 70.2552 99.4186 71.8889C100.467 73.3686 101.505 74.8543 102.543 76.3398C102.879 76.8204 103.216 77.3005 103.554 77.7805C104.972 79.7987 106.367 81.8278 107.744 83.8682C108.074 84.3554 108.406 84.8414 108.739 85.3272C108.851 85.4909 108.963 85.6547 109.078 85.8233C109.29 86.1342 109.503 86.4449 109.717 86.7552C111.126 88.8202 112.021 90.4361 111.419 92.8997C110.862 94.6805 109.935 96.1146 108.122 97.1148C106.839 97.6994 105.794 97.9336 104.353 97.9311C104.184 97.9316 104.015 97.932 103.841 97.9324C103.271 97.9337 102.7 97.9336 102.129 97.9335C101.718 97.9341 101.306 97.9348 100.895 97.9355C99.7604 97.9374 98.626 97.9381 97.4916 97.9386C96.2696 97.9393 95.0476 97.941 93.8255 97.9426C91.012 97.9461 88.1985 97.9479 85.3849 97.9495C83.9947 97.9503 82.6044 97.9512 81.2141 97.9522C76.4554 97.9555 71.6967 97.9582 66.938 97.9596C66.6392 97.9597 66.3404 97.9598 66.0416 97.9598C65.8934 97.9599 65.7452 97.9599 65.5925 97.96C64.8418 97.9602 64.091 97.9604 63.3402 97.9606C63.1167 97.9607 63.1167 97.9607 62.8887 97.9608C58.0586 97.9622 53.2285 97.9665 48.3985 97.9725C43.2923 97.9788 38.1861 97.9824 33.08 97.983C32.5194 97.9831 31.9587 97.9832 31.3981 97.9833C31.2601 97.9833 31.122 97.9833 30.9798 97.9833C28.8962 97.9837 26.8127 97.9862 24.7292 97.9897C22.3587 97.9937 19.9882 97.9951 17.6177 97.9934C16.4081 97.9925 15.1985 97.9929 13.9889 97.9964C12.8813 97.9997 11.7738 97.9995 10.6662 97.9966C10.2657 97.9962 9.86528 97.997 9.46484 97.9992C6.71145 98.0132 4.59495 97.8895 2.49862 96.1375C0.897428 94.508 0.452209 92.7927 0.510422 90.6915C0.675372 88.73 2.1779 87.038 3.34045 85.4322C3.96135 84.5654 4.56045 83.6871 5.16029 82.8089C5.54301 82.2486 5.92675 81.689 6.31054 81.1293C6.38892 81.015 6.4673 80.9007 6.54806 80.783C7.37661 79.5756 8.21139 78.3716 9.04815 77.1686C9.18048 76.9782 9.31281 76.7877 9.44914 76.5914C10.2968 75.3742 11.1585 74.1656 12.0296 72.9614C14.1897 69.9694 16.3258 66.9649 18.4476 63.9516C18.8488 63.3819 19.2502 62.8123 19.6519 62.2428C19.7819 62.0585 19.9119 61.8742 20.0458 61.6843C20.7971 60.6215 21.5596 59.5661 22.3352 58.5171C23.1652 57.3941 23.956 56.2531 24.7333 55.1009C24.8388 54.945 24.9442 54.7891 25.0528 54.6285C25.6047 53.8128 25.6047 53.8128 26.1529 52.9952C27.8254 50.4932 27.8254 50.4932 29.5347 50.0238C30.656 49.7852 31.7628 49.8015 32.9105 49.8083Z" fill="#020201"/>
<path d="M56.8296 12.6162C57.0659 13.1967 56.99 13.6334 56.8863 14.2321C56.7675 15.074 56.7487 15.9231 56.7138 16.7704C56.705 16.9784 56.6962 17.1865 56.6872 17.4008C56.5942 19.8182 56.5994 22.2347 56.6092 24.6531C56.6103 25.1086 56.6112 25.564 56.6121 26.0195C56.6143 27.1154 56.6178 28.2114 56.6222 29.3074C56.7503 29.2064 56.8784 29.1055 57.0104 29.0014C57.2626 28.8029 57.2626 28.8029 57.5198 28.6004C57.6864 28.4692 57.853 28.3379 58.0247 28.2027C58.9164 27.506 59.844 26.8494 60.7704 26.1893C60.8897 26.1041 61.0091 26.0189 61.1321 25.9311C62.0453 25.2798 62.9619 24.6325 63.8815 23.9882C63.9965 23.9075 64.1115 23.8269 64.2299 23.7437C66.0611 22.4638 67.9577 21.2845 69.8963 20.1364C70.0159 20.065 70.1356 19.9935 70.2588 19.92C70.5774 19.7305 70.8979 19.5436 71.2185 19.3569C71.3955 19.2538 71.5725 19.1507 71.7548 19.0445C71.8944 18.9811 72.034 18.9178 72.1778 18.8525C72.3146 18.913 72.4515 18.9735 72.5926 19.0359C70.201 20.9852 70.201 20.9852 69.1833 21.7643C68.7515 22.0953 68.3436 22.4266 67.9389 22.7845C67.4738 23.1958 66.9966 23.5732 66.5 23.9538C65.7557 24.5339 65.1044 25.1412 64.4648 25.8102C64.0475 26.231 63.6064 26.622 63.1555 27.0147C62.3159 27.7497 61.5366 28.5127 60.7704 29.3074C60.5731 29.5091 60.3756 29.7106 60.1781 29.9121C59.9607 30.1347 59.7433 30.3573 59.5259 30.5799C59.425 30.6828 59.3242 30.7857 59.2202 30.8917C59.0146 31.1032 58.8115 31.3167 58.6108 31.5319C58.3786 31.774 58.135 32.0078 57.8841 32.2348C56.6456 33.4382 56.6458 34.4806 56.7259 36.0595C56.7307 36.2786 56.7355 36.4977 56.7405 36.7234C56.7728 37.9148 56.8668 39.096 56.9871 40.2826C57.0864 41.4371 57.1151 42.5946 57.1537 43.7517C57.1627 44.0068 57.1717 44.2618 57.1808 44.5169C57.2026 45.1331 57.2238 45.7492 57.2444 46.3654C57.3813 46.3654 57.5182 46.3654 57.6592 46.3654C57.7146 46.2574 57.7699 46.1493 57.827 46.038C60.2668 42.0273 66.8239 38.9491 71.5795 37.6601C72.3948 37.454 73.2075 37.3119 74.0444 37.1944C74.0444 37.376 74.0444 37.5576 74.0444 37.7447C73.9212 37.7939 73.7979 37.8431 73.6709 37.8937C72.4371 38.4096 71.3701 39.0184 70.2811 39.7437C69.6787 40.1358 69.0606 40.4938 68.4315 40.8514C67.4241 41.4391 66.5337 42.0828 65.6542 42.8124C65.2245 43.1661 64.7884 43.5066 64.3441 43.8456C63.433 44.5482 62.5709 45.2885 61.7167 46.0444C61.4862 46.2476 61.4862 46.2476 61.2512 46.4549C60.224 47.3707 59.2816 48.3072 58.3989 49.3353C58.2917 49.4447 58.1845 49.5542 58.0741 49.667C57.9372 49.667 57.8003 49.667 57.6592 49.667C57.4984 53.7838 58.2372 57.9431 59.016 61.9894C59.2286 63.1453 59.3491 64.2864 58.7481 65.3494C58.5941 65.5007 58.4401 65.652 58.2815 65.8079C58.121 66.0235 58.121 66.0235 57.9574 66.2435C57.1142 66.7407 56.1527 66.6476 55.1704 66.5416C54.4683 66.329 53.9695 66.1515 53.5111 65.6245C53.2953 65.0367 53.2774 64.4923 53.2769 63.8769C53.2762 63.6736 53.2755 63.4702 53.2749 63.2607C53.2753 63.0416 53.2757 62.8224 53.2761 62.5966C53.2759 62.37 53.2757 62.1433 53.2755 61.9098C53.2754 61.3068 53.2762 60.7038 53.2774 60.1008C53.278 59.4931 53.2764 58.8854 53.2753 58.2777C53.2755 57.8105 53.2757 57.3434 53.2761 56.8762C53.2757 56.6593 53.2753 56.4424 53.2749 56.2189C53.2783 55.1377 53.3185 54.0784 53.4642 53.0045C53.5767 52.0385 53.5701 51.1598 53.3037 50.2172C49.7446 50.1567 46.1855 50.0962 42.5185 50.0338C42.5185 49.9733 42.5185 49.9128 42.5185 49.8504C46.0776 49.8504 49.6367 49.8504 53.3037 49.8504C53.2354 48.5881 53.2354 48.5881 52.566 47.7654C52.3996 47.6175 52.3996 47.6175 52.2299 47.4667C52.0488 47.3156 52.0488 47.3156 51.864 47.1614C51.677 46.9981 51.677 46.9981 51.4862 46.8315C51.0885 46.4858 50.6861 46.1448 50.2833 45.8037C50.0182 45.5741 49.7534 45.3443 49.4889 45.1141C48.2359 44.0283 46.9633 42.9717 45.6296 41.9634C45.3006 41.6965 44.9721 41.4291 44.6444 41.1609C43.5107 40.2535 42.3026 39.4562 41.0667 38.6618C41.4815 38.4784 41.4815 38.4784 41.8647 38.5679C42.0163 38.6178 42.1679 38.6677 42.3241 38.7191C42.9692 38.9229 43.5811 39.0745 44.2555 39.1777C46.5247 39.6151 48.188 40.9606 49.8809 42.2757C50.4588 42.7168 51.0651 43.1245 51.6712 43.5346C52.0078 43.7627 52.3387 43.9974 52.6685 44.2332C53.0758 44.5376 53.0758 44.5376 53.5111 44.7147C53.5498 43.1089 53.5792 41.5033 53.5971 39.8973C53.6057 39.1513 53.6173 38.4055 53.6363 37.6596C53.6545 36.9377 53.6643 36.216 53.6685 35.4939C53.6716 35.2206 53.6775 34.9473 53.6865 34.674C53.771 32.0189 52.7276 30.3995 50.8148 28.3903C50.5496 27.9662 50.5496 27.9662 50.3433 27.5549C49.6875 26.3458 48.8376 25.2556 47.9889 24.1487C47.8214 23.9287 47.6541 23.7087 47.4868 23.4886C47.0078 22.8593 46.5263 22.2314 46.0444 21.6038C45.9203 21.4418 45.7962 21.2798 45.6683 21.1129C44.6511 19.7871 43.625 18.4711 42.5185 17.2017C42.587 17.0806 42.6554 16.9596 42.7259 16.8349C42.8564 16.9391 42.9869 17.0434 43.1213 17.1508C45.0726 18.7202 45.0726 18.7202 47.0944 20.2167C47.7126 20.6935 48.2284 21.1942 48.7586 21.7456C49.1864 22.1858 49.6305 22.6104 50.0759 23.0367C51.1561 24.0949 52.182 25.2213 52.9748 26.4665C53.3603 27.0016 53.821 27.4052 54.3407 27.84C54.3311 27.6131 54.3215 27.3861 54.3116 27.1522C54.2421 24.715 54.5623 22.4421 55.0738 20.0505C55.189 19.4964 55.2791 18.9407 55.3648 18.3825C55.5595 17.2336 55.8392 16.1013 56.1167 14.9663C56.1628 14.7773 56.2089 14.5884 56.2564 14.3938C56.5957 13.03 56.5957 13.03 56.8296 12.6162Z" fill="#5F6F52"/>
<path d="M26.0167 29.5826C26.2813 29.5835 26.546 29.5844 26.8187 29.5854C28.7379 29.6169 30.2216 29.8023 31.9407 30.5914C32.1675 30.6817 32.3942 30.772 32.6278 30.8651C33.7651 31.3317 34.6227 31.7748 35.4667 32.609C35.6634 32.7187 35.8602 32.8284 36.063 32.9415C37.5717 33.8755 39.4225 35.6949 39.9729 37.2547C39.9916 37.3559 40.0103 37.4571 40.0296 37.5613C38.5288 37.4507 37.1272 37.1734 35.6741 36.8277C35.6741 36.9487 35.6741 37.0698 35.6741 37.1945C35.811 37.1945 35.9478 37.1945 36.0889 37.1945C36.1573 37.3761 36.2258 37.5577 36.2963 37.7448C36.8246 37.9062 37.3234 38.0338 37.8648 38.146C38.0123 38.1785 38.1597 38.211 38.3116 38.2445C38.6763 38.3246 39.0418 38.4018 39.4074 38.4784C37.9792 39.4966 36.6648 40.1801 34.9352 40.7253C34.7858 40.7727 34.6364 40.8201 34.4825 40.8689C30.7015 42.0174 26.5749 41.5525 23.0222 40.0834C19.8831 38.6236 15.6807 35.6922 14.5185 32.609C15.7498 31.8621 17.0363 31.3143 18.4204 30.8321C18.5675 30.7799 18.7147 30.7276 18.8663 30.6737C21.2156 29.8781 23.5067 29.5711 26.0167 29.5826Z" fill="#5F6F52"/>
<path d="M97.0666 7.66399C96.8379 8.76379 96.5104 9.6753 95.9259 10.6675C95.862 10.7779 95.7981 10.8883 95.7323 11.0021C95.4418 11.4994 95.1366 11.9667 94.7852 12.4329C94.6483 12.4329 94.5114 12.4329 94.3703 12.4329C94.3233 12.5577 94.2762 12.6826 94.2278 12.8112C93.6775 13.9003 92.8537 14.7321 91.8815 15.551C91.7775 15.6489 91.6734 15.7468 91.5663 15.8477C89.2622 17.995 85.8427 19.7176 82.459 19.8378C76.7708 19.9198 76.7708 19.9198 74.2518 18.8526C74.1149 18.671 73.9781 18.4894 73.837 18.3023C75.6935 17.4656 77.572 16.6709 79.4529 15.8782C79.753 15.7517 79.753 15.7517 80.0592 15.6227C80.3287 15.5093 80.3287 15.5093 80.6037 15.3936C80.7662 15.3245 80.9288 15.2554 81.0963 15.1842C81.2503 15.126 81.4043 15.0677 81.5629 15.0078C81.9977 14.827 81.9977 14.827 82.1333 14.2671C80.8051 14.6272 79.5697 15.0814 78.3222 15.6198C77.9774 15.7663 77.6325 15.9127 77.2876 16.059C77.0407 16.1642 77.0407 16.1642 76.7888 16.2715C76.1831 16.5288 75.575 16.7811 74.9648 17.0299C74.7934 17.1001 74.622 17.1703 74.4455 17.2427C74.0444 17.3852 74.0444 17.3852 73.6296 17.3852C74.0945 14.4197 76.1735 11.536 78.7459 9.64077C83.8894 6.20848 91.0375 6.1598 97.0666 7.66399Z" fill="#5F6F52"/>
<path d="M37.5926 12.2724C39.0955 13.2917 40.9668 14.5734 41.4167 16.2732C41.2257 17.0253 40.8805 17.2431 40.1746 17.6689C39.076 18.192 37.8964 18.5183 36.7111 18.8526C36.5058 18.9131 36.3004 18.9736 36.0889 19.036C32.6019 19.2055 30.0953 18.602 27.412 16.5429C26.2142 15.5632 25.1349 14.5752 24.2667 13.35C24.4784 12.8461 24.6274 12.6452 25.1554 12.3634C29.1305 10.8653 33.711 10.0142 37.5926 12.2724Z" fill="#5F6F52"/>
<path d="M42.1344 91.4143C42.458 91.4112 42.458 91.4112 42.7882 91.408C43.0237 91.4086 43.2593 91.4091 43.502 91.4097C43.7509 91.4081 43.9999 91.4065 44.2564 91.4049C44.9387 91.4014 45.6209 91.4003 46.3031 91.4007C46.8732 91.4007 47.4432 91.3991 48.0132 91.3976C49.3585 91.3941 50.7037 91.3935 52.049 91.3948C53.4355 91.396 54.8219 91.3918 56.2083 91.385C57.3998 91.3794 58.5912 91.3773 59.7827 91.378C60.4938 91.3784 61.2049 91.3774 61.916 91.3729C62.7095 91.3688 63.5027 91.3706 64.2962 91.3738C64.5309 91.3714 64.7656 91.369 65.0074 91.3665C66.783 91.3833 66.783 91.3833 67.563 91.9523C67.717 92.1013 67.871 92.2503 68.0296 92.4038C67.79 93.0396 67.633 93.17 66.9926 93.5043C66.4847 93.574 66.4847 93.574 65.9063 93.5754C65.6864 93.5772 65.4666 93.579 65.2401 93.5809C64.88 93.5797 64.88 93.5797 64.5126 93.5784C64.1321 93.5803 64.1321 93.5803 63.7439 93.5822C63.0488 93.585 62.3538 93.5853 61.6587 93.5842C61.0783 93.5837 60.4979 93.5848 59.9175 93.5859C58.5484 93.5885 57.1793 93.5882 55.8102 93.5861C54.3978 93.584 52.9855 93.5866 51.5731 93.5915C50.3602 93.5956 49.1472 93.5968 47.9343 93.5957C47.21 93.5951 46.4857 93.5955 45.7614 93.5987C44.954 93.602 44.1467 93.5995 43.3392 93.5963C42.9791 93.599 42.9791 93.599 42.6117 93.6017C42.282 93.599 42.282 93.599 41.9456 93.5962C41.7547 93.5962 41.5638 93.5961 41.3672 93.5961C40.7016 93.4758 40.4475 93.2341 40.0296 92.7706C40.0296 92.3923 40.0296 92.3923 40.237 92.0369C40.8686 91.5247 41.2852 91.4174 42.1344 91.4143Z" fill="#5F6F52"/>
<path d="M61.8074 0.143693C62.0517 0.636224 62.2491 1.10062 62.4296 1.61105C62.5515 1.94017 62.5515 1.94017 62.6759 2.27595C63.0949 3.8647 63.1116 5.65836 62.2222 7.11364C62.154 7.23115 62.0859 7.34866 62.0156 7.46973C61.1519 8.82022 59.7747 10.2807 58.0741 10.782C57.6593 10.7888 57.2443 10.7896 56.8296 10.782C55.7009 8.70003 55.3263 6.6801 56.0518 4.41966C56.9366 2.58288 58.8363 1.07607 60.7582 0.0992712C61.1852 -0.0397266 61.1852 -0.0397266 61.8074 0.143693Z" fill="#5F6F52"/>
<path d="M73.0074 20.5033C74.3438 20.3802 75.0723 20.6947 76.1185 21.4204C77.6355 22.5409 78.7244 23.8806 79.0222 25.6391C79.1836 27.7083 78.7636 29.457 77.7778 31.3251C75.5166 30.6193 74.0233 29.2316 72.8 27.4733C72.6631 27.2917 72.5262 27.1101 72.3852 26.923C71.6853 25.1186 71.6512 23.1496 72.5926 21.4204C72.7145 21.1481 72.7145 21.1481 72.8389 20.8702C72.8945 20.7491 72.9501 20.6281 73.0074 20.5033Z" fill="#5F6F52"/>
<path d="M83.8833 35.819C85.4875 36.7118 86.9937 37.6915 88.1481 39.0288C87.5916 39.2979 87.0341 39.565 86.4759 39.8313C86.3199 39.9069 86.1639 39.9826 86.0032 40.0605C83.8383 41.0882 81.267 41.5082 78.8521 40.8988C78.3703 40.6774 77.9866 40.4379 77.5703 40.1293C77.3867 39.9943 77.203 39.8593 77.0138 39.7202C76.2806 39.1565 75.6219 38.6453 75.0815 37.9283C75.1405 37.2701 75.4662 36.9762 76.0148 36.5526C78.2833 34.9132 81.287 34.4682 83.8833 35.819Z" fill="#5F6F52"/>
<path d="M68.237 9.49799C68.237 9.61905 68.237 9.7401 68.237 9.86483C68.4103 9.90526 68.4103 9.90526 68.587 9.94651C69.7999 10.2618 70.8762 10.6951 71.7629 11.5156C71.7629 11.6972 71.7629 11.8788 71.7629 12.0659C69.2778 14.0824 66.8367 14.9163 63.5047 14.8695C62.4553 14.8284 61.6558 14.5799 60.7704 14.0835C60.5394 13.9662 60.3084 13.8489 60.0704 13.7281C59.4883 13.3236 59.1732 13.0434 58.9037 12.4327C59.0745 11.4758 59.9495 10.8124 60.7704 10.2317C63.1094 8.81538 65.5726 8.83657 68.237 9.49799Z" fill="#5F6F52"/>
<path d="M46.2518 28.3904C47.0765 30.2916 47.6217 32.4007 46.8044 34.3809C45.9012 35.984 44.8753 37.249 42.9333 37.9282C42.3516 37.9554 42.3516 37.9554 41.8963 37.9282C41.0599 36.0948 40.4192 34.5554 41.1574 32.609C41.8765 31.1826 44.2732 28.3904 46.2518 28.3904Z" fill="#5F6F52"/>
<path d="M48.3259 6.56348C49.4724 8.71073 49.7737 10.6904 48.9481 12.9832C48.8113 12.9832 48.6744 12.9832 48.5333 12.9832C48.5143 13.0872 48.4954 13.1912 48.4758 13.2984C48.1304 14.2626 47.1353 15.1032 46.1878 15.6377C45.8024 15.8073 45.4057 15.9566 45.0074 16.1013C44.747 15.4105 44.9305 15.116 45.2148 14.4505C45.0779 14.4505 44.941 14.4505 44.8 14.4505C44.7316 14.8137 44.6631 15.1769 44.5926 15.551C44.3873 15.551 44.1819 15.551 43.9704 15.551C43.0176 14.0953 42.8579 12.6621 43.2631 11.02C43.8684 9.45115 46.2378 6.56348 48.3259 6.56348Z" fill="#5F6F52"/>
<path d="M42.5185 16.835C44.4876 18.0642 46.2141 19.5456 47.9111 21.0536C48.0702 21.1879 48.2293 21.3222 48.3932 21.4606C50.2002 23.0032 51.6842 24.7108 53.0298 26.5841C53.3229 26.9744 53.3229 26.9744 53.9129 27.3931C54.1247 27.6144 54.1247 27.6144 54.3407 27.8401C54.3026 28.1784 54.2609 28.5166 54.2019 28.8525C54.0647 29.7627 54.0545 30.6833 54.0167 31.6002C54.0032 31.9052 54.0032 31.9052 53.9895 32.2164C53.9677 32.7141 53.9465 33.2118 53.9259 33.7096C53.8575 33.7096 53.789 33.7096 53.7185 33.7096C53.7185 33.4902 53.7185 33.2707 53.7185 33.0447C53.6123 32.1729 53.2225 31.4897 52.7333 30.7405C52.6638 30.6338 52.5943 30.5271 52.5227 30.4172C52.1685 29.8954 51.7969 29.4354 51.343 28.9772C50.9089 28.5319 50.6283 28.0858 50.3433 27.555C49.6875 26.3459 48.8376 25.2557 47.9889 24.1488C47.8214 23.9288 47.6541 23.7088 47.4868 23.4887C47.0078 22.8594 46.5263 22.2315 46.0444 21.6039C45.9203 21.4419 45.7962 21.2799 45.6683 21.113C44.8022 19.9842 43.9367 18.8581 42.9981 17.775C42.5185 17.2018 42.5185 17.2018 42.5185 16.835Z" fill="#5F6F52"/>
<path d="M40.237 19.4028C40.8999 20.1774 41.1006 20.888 41.1185 21.8446C41.1239 22.0141 41.1292 22.1837 41.1347 22.3583C40.9978 23.4235 40.3406 24.161 39.55 24.9398C39.3968 25.0937 39.2436 25.2477 39.0858 25.4062C38.5332 25.8591 38.0279 26.119 37.3333 26.3728C36.8407 26.3155 36.8407 26.3155 36.5037 26.1894C36.1859 24.7106 35.8235 22.6486 36.737 21.2944C37.5617 20.3558 38.8099 19.182 40.237 19.4028Z" fill="#5F6F52"/>
<path d="M73.4222 38.4785C74.438 38.5555 74.8456 38.9029 75.4963 39.579C76.3313 40.4894 76.6914 41.2332 76.6233 42.4163C76.4298 43.415 75.9182 44.2469 75.2889 45.0816C74.0326 44.5982 73.1206 43.6149 72.6056 42.5023C72.1935 41.3505 72.3431 40.3394 72.8 39.2122C73.137 38.7651 73.137 38.7651 73.4222 38.4785Z" fill="#5F6F52"/>
<path d="M57.6593 50.2173C60.5385 50.2087 63.4177 50.2023 66.2969 50.1983C67.6338 50.1964 68.9707 50.1938 70.3076 50.1896C71.5972 50.1856 72.8869 50.1834 74.1766 50.1825C74.6691 50.1818 75.1616 50.1805 75.6541 50.1785C76.3429 50.1758 77.0317 50.1755 77.7204 50.1756C77.925 50.1743 78.1295 50.173 78.3402 50.1716C78.5281 50.1721 78.716 50.1726 78.9096 50.1732C79.0724 50.1728 79.2353 50.1725 79.4032 50.1721C79.9065 50.2228 80.2448 50.3625 80.6815 50.5841C80.4804 50.6409 80.2794 50.6976 80.0722 50.7561C79.4701 50.8951 79.4701 50.8951 79.2296 51.1344C78.8149 51.1504 78.3995 51.154 77.9844 51.1523C77.7324 51.1517 77.4804 51.1511 77.2208 51.1505C76.9554 51.149 76.6901 51.1474 76.4167 51.1458C76.1505 51.145 75.8843 51.1442 75.6101 51.1433C74.9499 51.1412 74.2898 51.1381 73.6296 51.1344C73.9034 51.0738 74.1772 51.0133 74.4592 50.951C74.4592 50.8299 74.4592 50.7088 74.4592 50.5841C74.2539 50.6446 74.0486 50.7052 73.837 50.7675C73.388 50.7764 72.9387 50.7743 72.4897 50.7661C72.2241 50.763 71.9584 50.76 71.6848 50.7568C71.2633 50.7511 70.8419 50.7446 70.4204 50.7361C70.0127 50.7283 69.6049 50.7242 69.1971 50.7202C68.9534 50.7162 68.7097 50.7121 68.4587 50.708C67.7406 50.7752 67.5532 50.9455 66.9926 51.3178C66.3543 51.3832 66.3543 51.3832 65.6072 51.378C65.4725 51.3776 65.3379 51.3773 65.1991 51.3769C64.9136 51.3757 64.628 51.3732 64.3425 51.3694C63.916 51.3638 63.4897 51.3619 63.0632 51.3608C61.255 51.3512 59.4613 51.2684 57.6593 51.1344C57.6593 50.8317 57.6593 50.5291 57.6593 50.2173Z" fill="#060403"/>
<path d="M31.543 49.8267C31.75 49.8261 31.957 49.8255 32.1703 49.825C32.5066 49.8255 32.5066 49.8255 32.8498 49.8261C33.0869 49.8258 33.3241 49.8256 33.5684 49.8253C34.3481 49.825 35.1277 49.8261 35.9074 49.8275C36.1726 49.8276 36.4378 49.8278 36.711 49.828C42.1742 49.8319 47.6348 49.916 53.0963 50.0338C53.0963 50.397 53.0963 50.7602 53.0963 51.1344C52.111 51.148 51.1258 51.158 50.1404 51.1646C49.8054 51.1673 49.4705 51.1711 49.1355 51.1759C48.6531 51.1826 48.1708 51.1857 47.6883 51.1881C47.465 51.1923 47.465 51.1923 47.2371 51.1967C46.2922 51.197 45.7894 51.0306 45.0074 50.5841C44.4595 50.4931 44.4595 50.4931 43.8796 50.4902C43.553 50.4804 43.553 50.4804 43.2198 50.4704C42.9884 50.4663 42.757 50.4622 42.5185 50.458C42.2793 50.452 42.0401 50.446 41.7937 50.4398C41.0674 50.4231 40.3412 50.4109 39.6148 50.4007C39.4042 50.3976 39.1936 50.3946 38.9766 50.3914C35.4103 50.1496 35.4103 50.1496 32.1481 50.9509C31.4976 51.0269 31.4976 51.0269 30.7611 51.0656C30.5165 51.0793 30.2718 51.093 30.0198 51.1071C29.7387 51.1206 29.7387 51.1206 29.4518 51.1344C29.5887 50.9528 29.7256 50.7712 29.8667 50.5841C30.0035 50.5841 30.1404 50.5841 30.2815 50.5841C30.2815 50.463 30.2815 50.342 30.2815 50.2173C30.0077 50.1567 29.7339 50.0962 29.4518 50.0338C30.1613 49.8924 30.8163 49.8273 31.543 49.8267Z" fill="#100B08"/>
<path d="M19.4963 33.5259C20.8579 33.6297 22.161 33.8464 23.4946 34.1098C24.0468 34.2169 24.5971 34.3157 25.1522 34.4093C26.6813 34.6778 28.1934 35.0124 29.7076 35.3392C30.2311 35.4521 30.755 35.5641 31.2788 35.676C31.6151 35.7484 31.9513 35.8207 32.2875 35.8931C32.5199 35.9427 32.5199 35.9427 32.757 35.9933C33.6063 36.1775 34.433 36.3879 35.2593 36.644C35.3619 37.098 35.3619 37.098 35.4667 37.5611C30.7674 36.9155 26.0892 35.5446 21.5704 34.2596C20.8799 34.0733 20.1885 33.8903 19.4963 33.7093C19.4963 33.6488 19.4963 33.5882 19.4963 33.5259Z" fill="#5F6F52"/>
<path d="M45.2148 50.0339C47.8157 50.0339 50.4166 50.0339 53.0963 50.0339C53.0963 50.3971 53.0963 50.7603 53.0963 51.1345C52.111 51.1481 51.1258 51.1581 50.1404 51.1647C49.8054 51.1674 49.4705 51.1712 49.1355 51.176C48.6531 51.1827 48.1708 51.1858 47.6883 51.1882C47.465 51.1924 47.465 51.1924 47.2371 51.1968C46.3153 51.1971 45.7505 51.0699 45.0074 50.5842C45.0758 50.4026 45.1443 50.221 45.2148 50.0339Z" fill="#050403"/>
<path d="M69.1488 50.1905C69.3828 50.1894 69.6167 50.1882 69.8578 50.187C70.2386 50.1867 70.2386 50.1867 70.6271 50.1864C70.8869 50.1857 71.1468 50.1851 71.4145 50.1845C71.9651 50.1836 72.5157 50.1831 73.0663 50.1832C73.7712 50.1832 74.476 50.1807 75.1809 50.1775C75.8537 50.175 76.5265 50.1751 77.1993 50.1749C77.4523 50.1736 77.7053 50.1723 77.966 50.1709C78.3189 50.1717 78.3189 50.1717 78.679 50.1726C78.8859 50.1723 79.0928 50.1721 79.306 50.1718C79.864 50.2182 80.2043 50.3316 80.6815 50.584C80.4804 50.6407 80.2793 50.6975 80.0722 50.756C79.4701 50.8949 79.4701 50.8949 79.2296 51.1343C78.8149 51.1503 78.3995 51.1539 77.9844 51.1522C77.7324 51.1516 77.4804 51.151 77.2208 51.1504C76.9554 51.1488 76.69 51.1473 76.4166 51.1457C76.1505 51.1449 75.8843 51.1441 75.6101 51.1432C74.9499 51.141 74.2898 51.138 73.6296 51.1343C73.9034 51.0737 74.1772 51.0132 74.4592 50.9508C74.4592 50.8298 74.4592 50.7087 74.4592 50.584C74.2539 50.6445 74.0486 50.7051 73.837 50.7674C73.3856 50.7785 72.9339 50.7785 72.4824 50.7724C72.2158 50.7702 71.9493 50.7679 71.6746 50.7656C71.2513 50.7611 70.8281 50.7559 70.4048 50.7498C69.9955 50.7443 69.5862 50.7411 69.1768 50.738C68.9321 50.735 68.6873 50.7319 68.4351 50.7287C67.7831 50.725 67.7831 50.725 67.2 51.1343C67.6692 50.2155 68.0401 50.1943 69.1488 50.1905Z" fill="#191511"/>
<path d="M91.0518 10.9657C90.245 11.3381 89.4378 11.7097 88.6301 12.0807C88.3567 12.2064 88.0834 12.3324 87.8102 12.4585C86.0082 13.2902 84.1955 14.0807 82.3407 14.8175C82.2038 14.5754 82.0669 14.3333 81.9259 14.0838C83.8467 13.2106 85.7866 12.4029 87.7746 11.6568C88.1141 11.5288 88.4521 11.3975 88.7898 11.2659C89.0625 11.1627 89.0625 11.1627 89.3407 11.0574C89.5701 10.9694 89.5701 10.9694 89.8041 10.8797C90.2982 10.7646 90.5679 10.8439 91.0518 10.9657Z" fill="#5F6F52"/>
<path d="M31.1111 14.4504C32.8301 14.5317 34.4598 14.8115 36.132 15.166C36.5437 15.2531 36.9561 15.3377 37.3686 15.422C38.7107 15.7021 39.9993 16.0011 41.2741 16.4681C41.2741 16.5891 41.2741 16.7102 41.2741 16.8349C40.1004 16.8856 39.1529 16.7105 38.0333 16.4107C37.7021 16.3253 37.3707 16.2403 37.0392 16.1557C36.8776 16.1144 36.7161 16.0732 36.5496 16.0306C35.9212 15.8767 35.2873 15.7527 34.65 15.6312C33.4269 15.3918 32.2751 15.0403 31.1111 14.6339C31.1111 14.5733 31.1111 14.5128 31.1111 14.4504Z" fill="#5F6F52"/>
<path d="M75.9111 36.6443C76.1164 36.7048 76.3218 36.7653 76.5333 36.8277C76.4649 36.8882 76.3964 36.9488 76.3259 37.0111C77.9675 37.4125 79.6083 37.6946 81.2918 37.9116C82.0469 38.0139 82.5255 38.0983 83.1703 38.4785C82.7685 38.4834 82.3667 38.487 81.9648 38.4899C81.741 38.4921 81.5172 38.4942 81.2867 38.4964C80.6815 38.4785 80.6815 38.4785 80.0592 38.2951C79.5443 38.2578 79.0323 38.227 78.5166 38.2034C76.8493 38.1266 76.8493 38.1266 76.1185 37.9282C76.0501 38.0493 75.9816 38.1703 75.9111 38.2951C75.6373 38.174 75.3635 38.053 75.0815 37.9282C75.1984 37.3285 75.3925 37.0431 75.9111 36.6443Z" fill="#5F6F52"/>
<path d="M72.1778 18.8528C72.3147 18.9133 72.4515 18.9738 72.5926 19.0362C68.8282 22.1543 68.8282 22.1543 67.8222 22.1543C67.541 22.3947 67.2651 22.6399 66.9926 22.888C66.4611 23.2205 66.4611 23.2205 65.9555 23.4383C65.7502 23.3777 65.5449 23.3172 65.3333 23.2549C66.1044 22.5381 66.9171 21.9433 67.8222 21.3633C67.957 21.2766 68.0918 21.1899 68.2307 21.1006C70.7985 19.4674 70.7985 19.4674 72.1778 18.8528Z" fill="#5F6F52"/>
<path d="M31.7109 49.8296C31.9517 49.8296 32.1924 49.8297 32.4405 49.8297C32.6983 49.8306 32.956 49.8316 33.2216 49.8325C33.4872 49.8328 33.7527 49.8331 34.0263 49.8333C34.7297 49.834 35.4331 49.8358 36.1366 49.8379C36.8554 49.8397 37.5742 49.8406 38.293 49.8415C39.7015 49.8435 41.11 49.8466 42.5185 49.8504C42.5185 49.911 42.5185 49.9715 42.5185 50.0339C38.9594 50.0944 35.4003 50.1549 31.7333 50.2173C32.8969 50.2173 34.0604 50.2173 35.2592 50.2173C35.2592 50.2778 35.2592 50.3383 35.2592 50.4007C35.0006 50.4142 35.0006 50.4142 34.7367 50.4279C34.5113 50.4416 34.2859 50.4554 34.0537 50.4695C33.8299 50.4823 33.6061 50.495 33.3756 50.5082C32.7317 50.5496 32.7317 50.5496 32.1481 50.951C31.4976 51.0269 31.4976 51.0269 30.7611 51.0656C30.5165 51.0793 30.2718 51.093 30.0198 51.1072C29.7387 51.1206 29.7387 51.1206 29.4518 51.1344C29.5887 50.9528 29.7256 50.7712 29.8667 50.5841C30.0035 50.5841 30.1404 50.5841 30.2815 50.5841C30.2815 50.4631 30.2815 50.342 30.2815 50.2173C30.0077 50.1568 29.7339 50.0962 29.4518 50.0339C30.2184 49.8771 30.9249 49.8281 31.7109 49.8296Z" fill="#292828"/>
<path d="M53.9259 29.8577C54.1312 29.9182 54.3366 29.9787 54.5481 30.0411C54.5139 30.178 54.4797 30.3149 54.4444 30.4559C54.272 31.5961 54.3328 32.7391 54.3488 33.8875C54.3572 34.8696 54.3282 35.8208 54.1869 36.7951C54.0909 37.5104 54.0575 38.2292 54.0166 38.9484C54.0077 39.0984 53.9987 39.2484 53.9895 39.403C53.9678 39.7673 53.9468 40.1317 53.9259 40.496C53.8575 40.496 53.789 40.496 53.7185 40.496C53.6757 33.1887 53.6757 33.1887 53.9259 29.8577Z" fill="#5F6F52"/>
<path d="M74.2518 37.3779C73.971 37.8747 73.665 37.9279 73.0981 38.1575C72.1879 38.5444 71.4237 38.9913 70.6417 39.5539C70.3111 39.7624 70.3111 39.7624 69.8963 39.7624C69.8963 39.6413 69.8963 39.5203 69.8963 39.3956C70.2336 39.142 70.5792 38.8968 70.9333 38.6619C70.728 38.7224 70.5227 38.7829 70.3111 38.8453C70.3111 38.7242 70.3111 38.6032 70.3111 38.4785C69.9004 38.539 69.4898 38.5995 69.0667 38.6619C70.0479 37.7941 72.9162 36.9842 74.2518 37.3779Z" fill="#5F6F52"/>
<path d="M63.2722 11.8598C63.4715 11.8614 63.6708 11.8631 63.8762 11.8648C64.362 11.8691 64.8476 11.8751 65.3333 11.8827C64.61 12.5224 63.6675 12.4429 62.6905 12.4509C62.3356 12.4497 61.9808 12.4475 61.6259 12.4444C61.4436 12.4436 61.2612 12.4428 61.0734 12.4419C60.6267 12.4398 60.18 12.4365 59.7333 12.433C59.6649 12.554 59.5964 12.6751 59.5259 12.7998C59.389 12.6182 59.2521 12.4366 59.1111 12.2496C60.5291 11.9229 61.8107 11.8364 63.2722 11.8598Z" fill="#5F6F52"/>
<path d="M73.6296 20.6865C74.0444 20.8699 74.0444 20.8699 74.2662 21.3506C74.7229 22.5878 74.7229 22.5878 74.8846 23.0377C75.0157 23.4008 75.1507 23.7627 75.286 24.1246C75.369 24.3531 75.4521 24.5816 75.5376 24.817C75.6142 25.0272 75.6909 25.2373 75.7699 25.4539C75.9057 25.9847 75.9207 26.2397 75.7037 26.7394C73.6296 21.9766 73.6296 21.9766 73.6296 20.6865Z" fill="#5F6F52"/>
<path d="M56.8296 12.6162C57.0193 13.0821 57.0332 13.3715 56.9463 13.8658C56.7596 14.9353 56.7536 16.0186 56.713 17.0985C56.704 17.3202 56.695 17.5419 56.6858 17.7702C56.6639 18.3144 56.6427 18.8585 56.6222 19.4027C56.5538 19.4027 56.4853 19.4027 56.4148 19.4027C56.3121 18.0408 56.3121 18.0408 56.2074 16.6514C56.139 16.6514 56.0705 16.6514 56 16.6514C56.2404 13.6584 56.2404 13.6584 56.8296 12.6162Z" fill="#5F6F52"/>
<path d="M41.0667 38.4785C42.1618 38.7206 43.2569 38.9627 44.3852 39.2122C44.3852 39.9459 44.3852 39.9459 44.1778 40.4961C42.8813 40.1487 42.0023 39.306 41.0667 38.4785Z" fill="#5F6F52"/>
<path d="M35.2593 50.2172C35.2593 50.2777 35.2593 50.3383 35.2593 50.4006C35.0868 50.4096 34.9144 50.4186 34.7367 50.4279C34.5113 50.4416 34.2859 50.4553 34.0537 50.4694C33.8299 50.4822 33.6061 50.495 33.3756 50.5081C32.7317 50.5496 32.7317 50.5496 32.1481 50.9509C31.4976 51.0268 31.4976 51.0268 30.7611 51.0655C30.5165 51.0792 30.2718 51.093 30.0198 51.1071C29.7387 51.1206 29.7387 51.1206 29.4518 51.1343C29.8667 50.5841 29.8667 50.5841 30.6055 50.3662C32.1294 50.0981 33.7136 50.189 35.2593 50.2172Z" fill="#2C1F17"/>
<path d="M84.8296 13.5333C84.3521 14.0103 83.8965 14.239 83.2352 14.4848C83.0675 14.5479 82.8999 14.6111 82.7272 14.6761C82.5997 14.7227 82.4721 14.7693 82.3407 14.8173C82.2038 14.5751 82.0669 14.333 81.9259 14.0836C82.9516 13.5472 83.6232 13.2132 84.8296 13.5333Z" fill="#5F6F52"/>
<path d="M42.5185 16.835C44.585 18.1656 44.585 18.1656 45.0074 18.6692C44.9555 19.1736 44.9555 19.1736 44.8 19.5863C43.9343 18.8657 43.1627 18.0887 42.5185 17.2018C42.5185 17.0807 42.5185 16.9597 42.5185 16.835Z" fill="#5F6F52"/>
<path d="M57.6592 52.6018C57.7234 52.7191 57.7876 52.8364 57.8537 52.9572C58.0397 53.3238 58.0397 53.3238 58.2815 53.5189C58.2995 53.8054 58.3037 54.0925 58.3017 54.3794C58.3007 54.6392 58.3007 54.6392 58.2997 54.9042C58.298 55.0864 58.2962 55.2686 58.2944 55.4563C58.2935 55.6392 58.2926 55.822 58.2916 56.0105C58.2891 56.4639 58.2857 56.9173 58.2815 57.3707C58.213 57.3707 58.1446 57.3707 58.0741 57.3707C57.8237 55.7771 57.5803 54.2154 57.6592 52.6018Z" fill="#5F6F52"/>
<path d="M75.9111 36.6443C76.1164 36.7048 76.3218 36.7653 76.5333 36.8277C76.4649 36.8882 76.3964 36.9488 76.3259 37.0111C77.2499 37.1927 77.2499 37.1927 78.1926 37.378C78.1926 37.4385 78.1926 37.499 78.1926 37.5614C77.8988 37.5664 77.6049 37.5699 77.3111 37.5728C77.0657 37.576 77.0657 37.576 76.8153 37.5793C76.3452 37.5621 75.9466 37.494 75.4963 37.378C75.4963 37.499 75.4963 37.6201 75.4963 37.7448C75.7701 37.8053 76.0438 37.8659 76.3259 37.9282C76.189 38.0493 76.0521 38.1703 75.9111 38.2951C75.6373 38.174 75.3635 38.053 75.0815 37.9282C75.1984 37.3285 75.3925 37.0431 75.9111 36.6443Z" fill="#5F6F52"/>
<path d="M38.5778 37.3779C39.1253 37.3779 39.6729 37.3779 40.237 37.3779C40.237 37.62 40.237 37.8622 40.237 38.1116C40.0317 38.2024 40.0317 38.2024 39.8222 38.295C39.7538 38.4766 39.6853 38.6582 39.6148 38.8453C39.187 38.9714 39.187 38.9714 38.7852 39.0287C38.8536 38.8471 38.9221 38.6655 38.9926 38.4784C38.6504 38.4179 38.3081 38.3574 37.9555 38.295C38.2293 38.2345 38.5031 38.174 38.7852 38.1116C38.7167 37.8695 38.6483 37.6274 38.5778 37.3779Z" fill="#5F6F52"/>
<path d="M57.8667 8.948C57.9351 8.948 58.0035 8.948 58.0741 8.948C58.0741 9.55328 58.0741 10.1586 58.0741 10.7822C57.6634 10.7822 57.2527 10.7822 56.8296 10.7822C56.6927 10.3585 56.5558 9.9348 56.4148 9.49826C56.5517 9.49826 56.6886 9.49826 56.8296 9.49826C56.8296 9.67984 56.8296 9.86143 56.8296 10.0485C57.5288 9.63139 57.5288 9.63139 57.8667 8.948Z" fill="#5F6F52"/>
<path d="M67.4074 21.6038C67.5443 21.6643 67.6812 21.7248 67.8222 21.7872C67.3043 22.5506 66.8937 23.0763 65.9555 23.438C65.7502 23.3774 65.5449 23.3169 65.3333 23.2545C65.9907 22.6566 66.6606 22.1132 67.4074 21.6038Z" fill="#5F6F52"/>
<path d="M78.6074 50.5842C78.9496 50.5842 79.2918 50.5842 79.6444 50.5842C79.4391 50.8566 79.4391 50.8566 79.2296 51.1345C78.6685 51.197 78.6685 51.197 77.9641 51.1882C77.5871 51.1856 77.5871 51.1856 77.2025 51.1829C76.9389 51.1782 76.6753 51.1736 76.4037 51.1689C76.1385 51.1664 75.8732 51.1639 75.6 51.1614C74.9431 51.1549 74.2864 51.1458 73.6296 51.1345C73.6296 51.074 73.6296 51.0134 73.6296 50.9511C75.2723 50.8905 76.9149 50.83 78.6074 50.7676C78.6074 50.7071 78.6074 50.6466 78.6074 50.5842Z" fill="#251912"/>
<path d="M67.6148 14.6336C66.3201 15.27 65.6006 15.5255 64.1278 15.1839C63.9096 15.1234 63.6914 15.0628 63.4667 15.0005C63.4667 14.9399 63.4667 14.8794 63.4667 14.8171C64.0801 14.7508 64.6936 14.686 65.3074 14.6222C65.5693 14.5936 65.5693 14.5936 65.8364 14.5645C66.0871 14.5388 66.0871 14.5388 66.3428 14.5126C66.5742 14.4881 66.5742 14.4881 66.8102 14.4631C67.2 14.4502 67.2 14.4502 67.6148 14.6336Z" fill="#5F6F52"/>
<path d="M86.2815 12.6162C86.2815 12.7978 86.2815 12.9794 86.2815 13.1665C85.5628 13.4388 85.5628 13.4388 84.8296 13.7167C84.5558 13.5351 84.2821 13.3536 84 13.1665C85.3481 12.6162 85.3481 12.6162 86.2815 12.6162Z" fill="#5F6F52"/>
<path d="M74.2518 37.3777C74.0444 37.7446 74.0444 37.7446 73.4352 37.9509C72.4715 38.1782 71.508 38.1431 70.5185 38.1114C71.1623 37.8032 71.7972 37.6089 72.5018 37.435C72.6989 37.3852 72.8959 37.3353 73.0989 37.2839C73.6296 37.1943 73.6296 37.1943 74.2518 37.3777Z" fill="#5F6F52"/>
<path d="M19.4963 33.5259C20.8313 33.6196 21.9768 33.8431 23.2296 34.2596C23.2296 34.3806 23.2296 34.5017 23.2296 34.6264C22.6847 34.5133 22.1404 34.3985 21.5963 34.2825C21.4415 34.2506 21.2867 34.2186 21.1272 34.1858C19.9581 33.9343 19.9581 33.9343 19.4963 33.5259Z" fill="#5F6F52"/>
<path d="M72.5926 21.4204C72.7294 21.4204 72.8663 21.4204 73.0074 21.4204C72.8705 21.9652 72.7336 22.5099 72.5926 23.0712C72.4557 23.0712 72.3188 23.0712 72.1777 23.0712C72.1777 23.9186 72.1777 24.766 72.1777 25.6391C72.1093 25.6391 72.0409 25.6391 71.9703 25.6391C71.8555 22.7511 71.8555 22.7511 72.5926 21.4204Z" fill="#5F6F52"/>
<path d="M76.1185 40.6794C76.6308 41.1325 76.5949 41.2815 76.5981 41.9061C76.5822 42.7898 76.3706 43.3856 75.9111 44.1644C75.6556 43.7126 75.7124 43.492 75.7815 42.9951C75.8002 42.8537 75.8189 42.7123 75.8382 42.5667C75.9111 42.1468 75.9111 42.1468 76.0229 41.7728C76.1501 41.3557 76.1501 41.3557 76.1185 40.6794Z" fill="#5F6F52"/>
<path d="M23.0222 29.6742C23.0222 29.7347 23.0222 29.7953 23.0222 29.8576C22.4908 29.9764 21.9593 30.0948 21.4278 30.213C21.2782 30.2465 21.1286 30.2799 20.9745 30.3144C20.2081 30.4846 19.4437 30.646 18.6667 30.7747C18.6667 30.6537 18.6667 30.5326 18.6667 30.4079C20.156 29.7679 21.3715 29.5743 23.0222 29.6742Z" fill="#CDD3C8"/>
<path d="M78.4 14.8174C78.5369 14.8779 78.6738 14.9384 78.8148 15.0008C78.1744 15.6156 77.6705 16.0739 76.7407 16.2847C76.2611 16.216 76.2611 16.216 75.9111 16.1013C76.2648 15.9235 76.6185 15.7457 76.9724 15.5683C77.3025 15.3987 77.6254 15.2181 77.9463 15.0352C78.096 14.9633 78.2457 14.8914 78.4 14.8174Z" fill="#5F6F52"/>
<path d="M38.7852 16.1013C39.1223 16.1272 39.4593 16.1541 39.7963 16.1816C39.984 16.1965 40.1717 16.2114 40.365 16.2267C40.8592 16.2847 40.8592 16.2847 41.2741 16.4682C41.2741 16.5892 41.2741 16.7103 41.2741 16.835C40.2394 16.8888 39.6226 16.8458 38.7852 16.2847C38.7852 16.2242 38.7852 16.1637 38.7852 16.1013Z" fill="#5F6F52"/>
<path d="M53.7185 30.7749C53.787 30.7749 53.8554 30.7749 53.9259 30.7749C53.9259 31.7434 53.9259 32.7118 53.9259 33.7096C53.8575 33.7096 53.789 33.7096 53.7185 33.7096C53.7108 33.6032 53.703 33.4968 53.695 33.3872C53.6067 32.4593 53.4341 31.7759 52.8889 30.9583C53.1627 31.0189 53.4364 31.0794 53.7185 31.1417C53.7185 31.0207 53.7185 30.8996 53.7185 30.7749Z" fill="#5F6F52"/>
<path d="M72.1778 37.9282C72.3146 37.9282 72.4515 37.9282 72.5926 37.9282C72.3326 38.618 72.0312 38.7493 71.3611 39.1548C71.1753 39.269 70.9895 39.3832 70.798 39.5009C70.3111 39.7624 70.3111 39.7624 69.8963 39.7624C69.8963 39.6414 69.8963 39.5203 69.8963 39.3956C70.2374 39.119 70.2374 39.119 70.687 38.8224C70.8338 38.7236 70.9806 38.6247 71.1318 38.5229C71.5555 38.2951 71.5555 38.2951 72.1778 38.2951C72.1778 38.174 72.1778 38.0529 72.1778 37.9282Z" fill="#5F6F52"/>
<path d="M43.3481 29.4907C43.5535 29.5513 43.7588 29.6118 43.9704 29.6741C43.2099 30.3467 42.4494 31.0192 41.6889 31.6918C41.7573 31.3891 41.8258 31.0865 41.8963 30.7747C42.0332 30.7747 42.1701 30.7747 42.3111 30.7747C42.3111 30.6536 42.3111 30.5325 42.3111 30.4078C42.448 30.4078 42.5849 30.4078 42.7259 30.4078C42.7944 30.2262 42.8628 30.0447 42.9333 29.8576C43.0702 29.8576 43.2071 29.8576 43.3481 29.8576C43.3481 29.7365 43.3481 29.6154 43.3481 29.4907Z" fill="#5F6F52"/>
<path d="M45.837 11.8826C45.9739 11.8826 46.1108 11.8826 46.2518 11.8826C46.3333 12.6985 46.0762 13.1926 45.6296 13.9002C45.4927 13.9002 45.3558 13.9002 45.2148 13.9002C45.2787 13.5981 45.3437 13.2963 45.4093 12.9945C45.4453 12.8264 45.4814 12.6583 45.5186 12.4851C45.6296 12.066 45.6296 12.066 45.837 11.8826Z" fill="#5F6F52"/>
<path d="M80.2278 14.313C80.4523 14.3811 80.4523 14.3811 80.6815 14.4505C79.9742 14.9759 79.2489 15.2479 78.4 15.551C78.7042 14.744 79.2236 14.234 80.2278 14.313Z" fill="#5F6F52"/>
<path d="M58.6963 6.37988C58.8332 6.37988 58.9701 6.37988 59.1111 6.37988C59.047 6.6475 58.982 6.91496 58.9167 7.18234C58.8806 7.3313 58.8445 7.48026 58.8073 7.63373C58.6963 8.03066 58.6963 8.03066 58.4889 8.3975C58.352 8.3975 58.2151 8.3975 58.0741 8.3975C58.1379 8.09546 58.2029 7.79362 58.2685 7.49186C58.3046 7.32376 58.3407 7.15565 58.3779 6.98245C58.4889 6.5633 58.4889 6.5633 58.6963 6.37988Z" fill="#5F6F52"/>
<path d="M41.0667 38.4785C41.4431 38.5608 41.8189 38.6453 42.1944 38.7307C42.4038 38.7775 42.6131 38.8243 42.8288 38.8726C43.3481 39.0288 43.3481 39.0288 43.5555 39.3956C43.3502 39.3956 43.1449 39.3956 42.9333 39.3956C42.8649 39.5167 42.7964 39.6377 42.7259 39.7625C42.4488 39.5836 42.1724 39.4038 41.8963 39.2237C41.7423 39.1236 41.5883 39.0236 41.4296 38.9206C41.3098 38.8352 41.1901 38.7499 41.0667 38.6619C41.0667 38.6014 41.0667 38.5409 41.0667 38.4785Z" fill="#5F6F52"/>
<path d="M38.9926 36.094C39.6319 36.6046 39.8123 36.7925 40.0296 37.5614C39.4136 37.5008 38.7976 37.4403 38.163 37.3779C38.4367 37.2569 38.7105 37.1358 38.9926 37.0111C38.9926 36.8295 38.9926 36.6479 38.9926 36.4608C38.9926 36.3398 38.9926 36.2187 38.9926 36.094Z" fill="#5F6F52"/>
<path d="M60.7704 10.2319C60.9072 10.2925 61.0441 10.353 61.1852 10.4154C60.7012 10.8433 60.2173 11.2713 59.7333 11.6993C59.8018 11.8203 59.8702 11.9414 59.9407 12.0661C59.5985 12.1872 59.2563 12.3082 58.9037 12.433C59.205 11.4559 59.9576 10.8988 60.7704 10.2319Z" fill="#5F6F52"/>
<path d="M46.0444 7.29712C46.2498 7.35765 46.4551 7.41818 46.6667 7.48054C46.4035 7.68729 46.1398 7.89354 45.8759 8.09958C45.7291 8.21449 45.5824 8.3294 45.4311 8.44779C45.0074 8.76448 45.0074 8.76448 44.3852 9.13132C44.6821 8.21237 45.1794 7.8279 46.0444 7.29712Z" fill="#5F6F52"/>
<path d="M0.414815 90.3862C0.483259 90.3862 0.551704 90.3862 0.622222 90.3862C0.690667 91.3547 0.759111 92.3231 0.829629 93.3209C0.555852 93.3209 0.282074 93.3209 0 93.3209C0.136889 92.3525 0.273778 91.384 0.414815 90.3862Z" fill="#BFBFC1"/>
<path d="M111.793 90.9365C111.861 90.9365 111.929 90.9365 112 90.9365C112 91.5418 112 92.1471 112 92.7707C111.795 92.8312 111.589 92.8918 111.378 92.9541C111.407 92.6522 111.437 92.3503 111.468 92.0485C111.485 91.8804 111.502 91.7123 111.52 91.5391C111.585 91.1199 111.585 91.1199 111.793 90.9365Z" fill="#CDCFD2"/>
<path d="M74.6796 18.1074C74.9812 18.1131 74.9812 18.1131 75.2889 18.1189C75.2889 18.361 75.2889 18.6031 75.2889 18.8526C74.7963 18.887 74.7963 18.887 74.2518 18.8526C74.1149 18.671 73.9781 18.4894 73.837 18.3023C74.0444 18.1189 74.0444 18.1189 74.6796 18.1074Z" fill="#5F6F52"/>
<path d="M68.237 21.0535C68.6518 21.2369 68.6518 21.2369 69.2741 21.6037C68.6391 22.085 68.5001 22.154 67.6148 22.154C68.0037 21.2598 68.0037 21.2598 68.237 21.0535Z" fill="#5F6F52"/>
<path d="M79.6444 35.3603C77.9308 36.2026 77.9308 36.2026 76.9481 36.094C77.831 35.4577 78.516 35.0643 79.6444 35.3603Z" fill="#5F6F52"/>
<path d="M81.0963 35.177C82.1077 35.1131 82.7079 35.284 83.5852 35.7273C82.9014 35.9288 82.6716 35.8871 81.9907 35.7387C81.7393 35.6852 81.7393 35.6852 81.4827 35.6305C81.2914 35.5876 81.2914 35.5876 81.0963 35.5439C81.0963 35.4228 81.0963 35.3017 81.0963 35.177Z" fill="#5F6F52"/>
<path d="M17.0074 31.325C16.3594 31.7879 15.684 32.1087 14.9333 32.4255C14.9852 32.0816 14.9852 32.0816 15.1407 31.6919C15.7537 31.3046 16.2687 31.2887 17.0074 31.325Z" fill="#C8D0C3"/>
<path d="M73.6296 20.6865C74.0444 20.8699 74.0444 20.8699 74.1903 21.1959C74.2277 21.3267 74.2651 21.4574 74.3037 21.5922C74.3433 21.7224 74.3828 21.8527 74.4236 21.9869C74.4354 22.1026 74.4471 22.2182 74.4592 22.3373C74.3223 22.4584 74.1855 22.5794 74.0444 22.7041C73.797 21.9931 73.6296 21.4356 73.6296 20.6865Z" fill="#5F6F52"/>
<path d="M56.8296 2.52808C57.035 2.52808 57.2403 2.52808 57.4518 2.52808C57.1351 3.1583 56.7053 3.65044 56.2074 4.17885C56.3107 3.4938 56.3889 3.11275 56.8296 2.52808Z" fill="#5F6F52"/>
<path d="M26.1333 50.9512C26.3387 51.0117 26.544 51.0722 26.7556 51.1346C26.7556 51.4978 26.7556 51.8609 26.7556 52.2351C26.5502 52.2351 26.3449 52.2351 26.1333 52.2351C26.1333 51.8114 26.1333 51.3877 26.1333 50.9512Z" fill="#E0E0E3"/>
<path d="M80.8889 50.5842C81.5049 50.5842 82.1209 50.5842 82.7555 50.5842C82.6871 50.7658 82.6186 50.9474 82.5481 51.1345C82.0621 51.0876 81.5778 51.0258 81.0963 50.9511C81.0278 50.83 80.9594 50.709 80.8889 50.5842Z" fill="#0E0C0A"/>
<path d="M53.9259 29.8577C54.1312 29.9182 54.3366 29.9787 54.5481 30.0411C54.4112 30.5253 54.2744 31.0095 54.1333 31.5084C54.0649 31.5084 53.9964 31.5084 53.9259 31.5084C53.9259 30.9637 53.9259 30.4189 53.9259 29.8577Z" fill="#5F6F52"/>
<path d="M96.4444 8.948C96.5129 9.06906 96.5813 9.19011 96.6518 9.31484C96.4906 9.67165 96.4906 9.67165 96.25 10.0714C96.1711 10.2043 96.0922 10.3372 96.011 10.4741C95.9487 10.5758 95.8864 10.6774 95.8222 10.7822C95.6853 10.7822 95.5484 10.7822 95.4074 10.7822C95.5348 10.0495 95.9687 9.54509 96.4444 8.948Z" fill="#5F6F52"/>
<path d="M73.837 20.6865C74.2477 20.8681 74.2477 20.8681 74.6667 21.0534C74.6667 21.5981 74.6667 22.1429 74.6667 22.7041C74.1568 22.0278 74.0419 21.4758 73.837 20.6865Z" fill="#5F6F52"/>
</svg>
